<svg xmlns="http://www.w3.org/2000/svg" version="1.1" viewBox="0.00 0.00 1000.00 187.00" width="1000.00" height="187.00">
<path fill="#ffffff" d="&#10;  M 521.40 61.64&#10;  A 0.75 0.74 -86.6 0 1 520.65 62.31&#10;  Q 505.52 62.23 491.00 62.53&#10;  Q 490.08 62.55 487.68 62.14&#10;  A 0.87 0.85 84.7 0 1 487.00 61.56&#10;  C 486.20 59.18 486.20 56.70 485.57 54.14&#10;  Q 482.76 42.62 472.52 35.75&#10;  Q 465.16 30.80 456.51 29.49&#10;  Q 453.48 29.03 447.33 28.61&#10;  A 1.17 1.16 2.1 0 1 446.25 27.45&#10;  L 446.25 1.36&#10;  A 0.79 0.79 0.0 0 1 447.05 0.57&#10;  Q 461.86 0.85 475.36 3.91&#10;  C 482.76 5.59 490.26 9.20 496.17 12.58&#10;  C 501.74 15.77 504.95 19.78 510.07 25.75&#10;  C 515.01 31.51 517.75 38.70 519.24 46.02&#10;  Q 520.92 54.23 521.34 58.59&#10;  Q 521.51 60.38 521.40 61.64&#10;  Z"/>
<path fill="#ffffff" d="&#10;  M 83.09 72.33&#10;  Q 120.25 72.30 127.75 72.46&#10;  Q 129.37 72.49 129.57 71.23&#10;  Q 129.59 71.11 129.61 68.83&#10;  Q 129.84 40.01 129.65 3.98&#10;  A 0.98 0.98 0.0 0 1 130.63 3.00&#10;  L 163.71 3.00&#10;  A 1.22 1.22 0.0 0 1 164.93 4.22&#10;  L 164.93 183.22&#10;  A 0.74 0.73 -90.0 0 1 164.20 183.96&#10;  L 130.70 183.96&#10;  A 1.12 1.12 0.0 0 1 129.58 182.84&#10;  L 129.58 106.70&#10;  A 0.99 0.98 -86.4 0 0 128.72 105.72&#10;  Q 128.42 105.69 127.75 105.68&#10;  Q 119.38 105.59 83.12 105.62&#10;  Q 46.85 105.65 38.48 105.76&#10;  Q 37.81 105.77 37.51 105.80&#10;  A 0.99 0.98 86.3 0 0 36.65 106.78&#10;  L 36.79 182.92&#10;  A 1.12 1.12 0.0 0 1 35.67 184.04&#10;  L 2.17 184.10&#10;  A 0.74 0.73 89.9 0 1 1.44 183.36&#10;  L 1.13 4.36&#10;  A 1.22 1.22 0.0 0 1 2.35 3.14&#10;  L 35.43 3.08&#10;  A 0.98 0.98 0.0 0 1 36.41 4.06&#10;  Q 36.28 40.09 36.56 68.91&#10;  Q 36.58 71.19 36.60 71.31&#10;  Q 36.81 72.57 38.42 72.54&#10;  Q 45.92 72.37 83.09 72.33&#10;  Z"/>
<path fill="#ffffff" d="&#10;  M 274.35 185.43&#10;  A 0.83 0.83 0.0 0 1 273.51 186.24&#10;  Q 257.43 186.03 242.14 181.34&#10;  Q 233.11 178.56 222.71 171.25&#10;  Q 219.33 168.87 216.99 166.25&#10;  C 214.37 163.32 211.55 160.95 209.79 158.31&#10;  C 203.72 149.23 199.62 138.87 198.86 128.16&#10;  C 198.63 125.00 198.14 121.52 198.14 117.93&#10;  Q 198.09 71.15 198.10 3.60&#10;  A 0.57 0.57 0.0 0 1 198.67 3.03&#10;  L 231.07 3.03&#10;  A 1.54 1.54 0.0 0 1 232.61 4.57&#10;  Q 232.59 106.08 232.67 114.74&#10;  Q 232.80 127.58 240.23 138.86&#10;  A 3.83 3.76 -87.4 0 0 241.03 139.75&#10;  C 247.39 144.99 250.61 147.53 256.84 149.89&#10;  C 262.23 151.94 268.10 152.08 273.79 152.25&#10;  A 1.26 1.26 0.0 0 1 275.01 153.53&#10;  L 274.35 185.43&#10;  Z"/>
<rect fill="#ffffff" x="314.97" y="3.08" width="35.16" height="114.98" rx="1.45"/>
<rect fill="#ffffff" x="525.84" y="3.09" width="144.26" height="33.70" rx="1.20"/>
<path fill="#ffffff" d="&#10;  M 830.79 184.06&#10;  Q 818.73 184.12 794.28 184.04&#10;  C 790.48 184.03 790.59 182.18 789.47 179.10&#10;  C 785.69 168.75 783.44 160.17 779.49 151.10&#10;  Q 778.03 147.77 774.13 136.08&#10;  C 771.24 127.40 766.99 117.03 763.81 107.23&#10;  Q 762.69 103.75 759.57 95.73&#10;  Q 756.29 87.29 751.56 72.75&#10;  C 750.38 69.11 748.07 64.76 746.81 60.83&#10;  Q 743.28 49.85 739.42 40.59&#10;  A 1.11 1.10 59.2 0 0 737.70 40.15&#10;  Q 736.63 41.03 736.16 42.66&#10;  Q 734.01 50.13 731.87 55.75&#10;  C 726.74 69.24 723.03 83.55 717.64 97.20&#10;  C 715.31 103.13 713.87 109.41 711.65 115.51&#10;  Q 706.81 128.81 702.43 143.46&#10;  C 701.55 146.40 699.43 150.71 698.70 152.95&#10;  Q 695.18 163.75 689.16 182.97&#10;  A 1.46 1.44 -81.2 0 1 687.78 183.99&#10;  L 652.29 183.99&#10;  A 1.02 1.02 0.0 0 1 651.33 182.62&#10;  Q 657.39 165.49 660.91 156.21&#10;  C 664.19 147.53 666.28 139.17 669.58 131.83&#10;  C 673.23 123.72 676.06 113.30 679.17 105.14&#10;  C 683.11 94.83 685.98 86.01 689.61 76.56&#10;  Q 692.99 67.75 697.56 53.57&#10;  C 698.92 49.35 701.73 44.06 703.43 38.89&#10;  Q 708.57 23.18 713.58 9.61&#10;  Q 713.59 9.59 715.41 3.81&#10;  A 1.03 1.02 8.4 0 1 716.39 3.09&#10;  Q 748.94 3.06 758.32 3.11&#10;  Q 760.49 3.12 761.17 4.80&#10;  C 764.00 11.88 765.83 17.54 768.59 24.18&#10;  Q 773.97 37.14 777.30 46.94&#10;  C 778.51 50.51 781.56 55.89 783.08 60.38&#10;  Q 785.78 68.38 790.07 78.51&#10;  C 793.42 86.41 795.42 92.83 798.99 101.05&#10;  Q 801.24 106.22 803.72 113.09&#10;  Q 807.59 123.82 808.32 125.20&#10;  Q 810.40 129.15 813.53 137.78&#10;  C 817.40 148.43 821.36 157.18 824.82 167.13&#10;  C 826.68 172.49 830.13 178.17 831.31 183.40&#10;  A 0.54 0.54 0.0 0 1 830.79 184.06&#10;  Z"/>
<path fill="#ffffff" d="&#10;  M 958.19 114.66&#10;  Q 962.04 120.84 966.35 128.82&#10;  C 967.36 130.69 969.08 132.59 970.13 134.37&#10;  Q 983.58 157.16 986.24 161.27&#10;  Q 992.53 171.01 998.99 183.10&#10;  A 0.66 0.66 0.0 0 1 998.40 184.07&#10;  L 962.62 184.07&#10;  A 3.00 3.00 0.0 0 1 960.04 182.60&#10;  Q 957.82 178.85 956.91 177.10&#10;  Q 943.88 152.25 939.93 144.81&#10;  Q 939.43 143.87 937.64 141.29&#10;  A 2.91 2.34 20.3 0 1 937.43 140.94&#10;  L 927.65 121.52&#10;  A 2.55 2.55 0.0 0 0 925.38 120.13&#10;  L 886.37 120.13&#10;  A 0.62 0.62 0.0 0 0 885.75 120.75&#10;  L 885.75 182.50&#10;  A 1.48 1.48 0.0 0 1 884.31 183.98&#10;  Q 882.39 184.02 856.53 184.03&#10;  Q 853.17 184.03 851.42 183.59&#10;  A 0.78 0.77 7.2 0 1 850.83 182.84&#10;  L 850.83 92.49&#10;  A 1.39 1.39 0.0 0 1 852.23 91.10&#10;  Q 887.35 91.35 910.25 91.28&#10;  Q 919.07 91.25 923.75 90.94&#10;  Q 927.17 90.72 934.66 88.99&#10;  C 948.60 85.77 956.22 75.60 956.38 60.72&#10;  Q 956.58 42.41 940.61 36.21&#10;  C 937.47 34.98 932.23 34.07 927.39 33.77&#10;  Q 922.78 33.49 919.25 33.45&#10;  Q 885.11 33.05 854.80 33.46&#10;  Q 852.86 33.48 851.53 33.15&#10;  A 0.82 0.80 7.5 0 1 850.92 32.37&#10;  L 850.92 4.17&#10;  A 1.05 1.05 0.0 0 1 851.97 3.12&#10;  Q 894.35 3.04 921.10 3.16&#10;  C 934.75 3.21 945.99 4.09 957.96 8.52&#10;  Q 962.84 10.33 969.74 15.24&#10;  Q 978.19 21.25 982.99 31.50&#10;  Q 988.87 44.07 989.60 58.49&#10;  Q 990.00 66.29 988.14 73.11&#10;  Q 985.03 84.50 980.64 91.93&#10;  Q 977.89 96.59 971.11 104.83&#10;  A 3.63 3.56 -87.2 0 1 970.43 105.46&#10;  L 958.34 113.93&#10;  A 0.54 0.53 56.8 0 0 958.19 114.66&#10;  Z"/>
<path fill="#ffffff" d="&#10;  M 373.79 124.67&#10;  A 0.63 0.63 0.0 0 1 374.42 123.98&#10;  L 407.99 123.98&#10;  A 1.11 1.10 85.4 0 1 409.08 124.91&#10;  Q 410.33 132.29 410.92 134.35&#10;  Q 413.90 144.82 423.25 150.97&#10;  Q 427.39 153.69 430.52 154.71&#10;  Q 452.22 161.76 473.29 152.75&#10;  C 476.08 151.56 481.74 147.04 483.70 143.78&#10;  Q 488.69 135.46 485.32 126.79&#10;  Q 482.91 120.62 476.42 116.13&#10;  Q 470.26 111.87 463.90 109.64&#10;  Q 454.95 106.50 432.71 100.41&#10;  Q 416.65 96.01 406.42 91.35&#10;  Q 397.76 87.40 392.18 82.87&#10;  Q 385.89 77.76 381.56 70.18&#10;  Q 376.63 61.56 376.59 50.05&#10;  A 0.67 0.67 0.0 0 1 377.26 49.38&#10;  L 408.72 49.38&#10;  A 1.38 1.37 -4.4 0 1 410.08 50.54&#10;  C 411.75 60.82 419.31 66.15 428.73 70.27&#10;  Q 434.87 72.95 449.26 76.93&#10;  Q 465.28 81.35 472.10 83.40&#10;  Q 473.75 83.90 485.59 88.51&#10;  C 496.56 92.79 505.22 98.04 511.80 105.92&#10;  Q 517.47 112.68 519.53 122.01&#10;  C 520.54 126.57 521.82 131.55 521.38 136.42&#10;  C 520.48 146.48 516.77 157.03 509.60 164.25&#10;  C 507.35 166.51 505.03 169.06 502.04 171.15&#10;  Q 482.10 185.11 455.75 185.89&#10;  C 438.33 186.40 423.87 184.88 409.04 178.91&#10;  Q 398.51 174.68 391.88 168.69&#10;  Q 380.46 158.36 376.48 143.27&#10;  Q 375.79 140.64 374.94 134.03&#10;  Q 373.89 125.83 373.79 124.67&#10;  Z"/>
<rect fill="#ffffff" x="580.63" y="59.64" width="35.16" height="124.44" rx="1.05"/>
</svg>